<svg width="212" height="173" viewBox="0 0 212 173" fill="none" xmlns="http://www.w3.org/2000/svg">
<rect width="6.09569" height="6.09457" transform="matrix(1 0 0 -1 111.134 160.345)" fill="#FF9500"/>
<rect width="6.09569" height="6.09457" transform="matrix(1 0 0 -1 117.228 160.345)" fill="#FF9500"/>
<rect width="6.09569" height="6.09457" transform="matrix(1 0 0 -1 123.324 160.345)" fill="#FF9500"/>
<rect width="6.09569" height="6.09457" transform="matrix(1 0 0 -1 129.42 160.345)" fill="#FF9500"/>
<rect width="6.09569" height="6.09457" transform="matrix(1 0 0 -1 135.514 160.345)" fill="#FF9500"/>
<rect width="6.09569" height="6.09457" transform="matrix(1 0 0 -1 141.61 160.345)" fill="#FF9500"/>
<rect width="6.09569" height="6.09457" transform="matrix(1 0 0 -1 141.61 154.251)" fill="#FF9500"/>
<rect width="6.09569" height="6.09457" transform="matrix(1 0 0 -1 147.706 154.251)" fill="#FF9500"/>
<rect width="6.09569" height="6.09457" transform="matrix(1 0 0 -1 153.802 154.251)" fill="#FF9500"/>
<rect width="6.09569" height="6.09457" transform="matrix(1 0 0 -1 153.802 148.156)" fill="#FF9500"/>
<rect width="6.09569" height="6.09457" transform="matrix(1 0 0 -1 159.898 148.156)" fill="#FF9500"/>
<rect width="6.09569" height="6.09457" transform="matrix(1 0 0 -1 159.898 142.061)" fill="#FF9500"/>
<rect width="6.09569" height="6.09457" transform="matrix(1 0 0 -1 165.994 142.061)" fill="#FF9500"/>
<rect width="6.09569" height="6.09457" transform="matrix(1 0 0 -1 172.088 142.061)" fill="#FF9500"/>
<rect width="6.09569" height="6.09457" transform="matrix(1 0 0 -1 172.088 135.967)" fill="#FF9500"/>
<rect width="6.09569" height="6.09457" transform="matrix(1 0 0 -1 178.184 135.967)" fill="#FF9500"/>
<rect width="6.09569" height="6.09457" transform="matrix(1 0 0 -1 178.184 129.872)" fill="#FF9500"/>
<rect width="6.09569" height="6.09457" transform="matrix(1 0 0 -1 178.184 123.778)" fill="#FF9500"/>
<rect width="6.09569" height="6.09457" transform="matrix(1 0 0 -1 184.28 123.778)" fill="#FF9500"/>
<rect width="6.09569" height="6.09457" transform="matrix(1 0 0 -1 190.376 123.778)" fill="#FF9500"/>
<rect width="6.09569" height="6.09457" transform="matrix(1 0 0 -1 190.376 129.872)" fill="#FF9500"/>
<rect width="6.09569" height="6.09457" transform="matrix(1 0 0 -1 190.376 135.967)" fill="#FF9500"/>
<rect width="6.09569" height="6.09457" transform="matrix(1 0 0 -1 184.28 129.872)" fill="#FF9500"/>
<rect width="6.09569" height="6.09457" transform="matrix(1 0 0 -1 184.28 135.967)" fill="#FF9500"/>
<rect width="6.09569" height="6.09457" transform="matrix(1 0 0 -1 184.28 142.061)" fill="#FF9500"/>
<rect width="6.09569" height="6.09457" transform="matrix(1 0 0 -1 178.184 142.061)" fill="#FF9500"/>
<rect width="6.09569" height="6.09457" transform="matrix(1 0 0 -1 178.184 148.156)" fill="#FF9500"/>
<rect width="6.09569" height="6.09457" transform="matrix(1 0 0 -1 172.088 148.156)" fill="#FF9500"/>
<rect width="6.09569" height="6.09457" transform="matrix(1 0 0 -1 165.994 148.156)" fill="#FF9500"/>
<rect width="6.09569" height="6.09457" transform="matrix(1 0 0 -1 165.994 154.251)" fill="#FF9500"/>
<rect width="6.09569" height="6.09457" transform="matrix(1 0 0 -1 159.898 154.251)" fill="#FF9500"/>
<rect width="6.09569" height="6.09457" transform="matrix(1 0 0 -1 153.802 160.345)" fill="#FF9500"/>
<rect width="6.09569" height="6.09457" transform="matrix(1 0 0 -1 147.706 160.345)" fill="#FF9500"/>
<rect width="6.09569" height="6.09457" transform="matrix(1 0 0 -1 147.706 166.44)" fill="#FF9500"/>
<rect width="6.09569" height="6.09457" transform="matrix(1 0 0 -1 141.61 166.44)" fill="#FF9500"/>
<rect width="6.09569" height="6.09457" transform="matrix(1 0 0 -1 135.514 166.44)" fill="#FF9500"/>
<rect width="6.09569" height="6.09457" transform="matrix(1 0 0 -1 135.514 172.535)" fill="#FF9500"/>
<rect width="6.09569" height="6.09457" transform="matrix(1 0 0 -1 129.42 166.44)" fill="#FF9500"/>
<rect width="6.09569" height="6.09457" transform="matrix(1 0 0 -1 129.42 172.535)" fill="#FF9500"/>
<rect width="6.09569" height="6.09457" transform="matrix(1 0 0 -1 123.324 166.44)" fill="#FF9500"/>
<rect width="6.09569" height="6.09457" transform="matrix(1 0 0 -1 123.324 172.535)" fill="#FF9500"/>
<rect width="6.09569" height="6.09457" transform="matrix(1 0 0 -1 117.228 166.44)" fill="#FF9500"/>
<rect width="6.09569" height="6.09457" transform="matrix(1 0 0 -1 117.228 172.535)" fill="#FF9500"/>
<rect width="6.09569" height="6.09457" transform="matrix(1 0 0 -1 111.134 166.44)" fill="#FF9500"/>
<rect width="6.09569" height="6.09457" transform="matrix(1 0 0 -1 111.134 172.535)" fill="#FF9500"/>
<rect x="111.134" y="160.345" width="6.09569" height="6.09457" transform="rotate(180 111.134 160.345)" fill="#FF9500"/>
<rect x="105.038" y="160.345" width="6.09569" height="6.09457" transform="rotate(180 105.038 160.345)" fill="#FF9500"/>
<rect x="98.9395" y="160.345" width="6.09569" height="6.09457" transform="rotate(180 98.9395 160.345)" fill="#FF9500"/>
<rect x="92.8457" y="160.345" width="6.09569" height="6.09457" transform="rotate(180 92.8457 160.345)" fill="#FF9500"/>
<rect x="86.75" y="160.345" width="6.09569" height="6.09457" transform="rotate(180 86.75 160.345)" fill="#FF9500"/>
<rect x="80.6538" y="160.345" width="6.09569" height="6.09457" transform="rotate(180 80.6538 160.345)" fill="#FF9500"/>
<rect x="80.6538" y="154.251" width="6.09569" height="6.09457" transform="rotate(180 80.6538 154.251)" fill="#FF9500"/>
<rect x="74.5576" y="154.251" width="6.09569" height="6.09457" transform="rotate(180 74.5576 154.251)" fill="#FF9500"/>
<rect x="68.4639" y="154.251" width="6.09569" height="6.09457" transform="rotate(180 68.4639 154.251)" fill="#FF9500"/>
<rect x="68.4639" y="148.156" width="6.09569" height="6.09457" transform="rotate(180 68.4639 148.156)" fill="#FF9500"/>
<rect x="62.3652" y="148.156" width="6.09569" height="6.09457" transform="rotate(180 62.3652 148.156)" fill="#FF9500"/>
<rect x="62.3652" y="142.061" width="6.09569" height="6.09457" transform="rotate(180 62.3652 142.061)" fill="#FF9500"/>
<rect x="56.2715" y="142.061" width="6.09569" height="6.09457" transform="rotate(180 56.2715 142.061)" fill="#FF9500"/>
<rect x="50.1758" y="142.061" width="6.09569" height="6.09457" transform="rotate(180 50.1758 142.061)" fill="#FF9500"/>
<rect x="50.1758" y="135.967" width="6.09569" height="6.09457" transform="rotate(180 50.1758 135.967)" fill="#FF9500"/>
<rect x="44.0796" y="135.967" width="6.09569" height="6.09457" transform="rotate(180 44.0796 135.967)" fill="#FF9500"/>
<rect x="44.0796" y="129.872" width="6.09569" height="6.09457" transform="rotate(180 44.0796 129.872)" fill="#FF9500"/>
<rect x="44.0796" y="123.778" width="6.09569" height="6.09457" transform="rotate(180 44.0796 123.778)" fill="#FF9500"/>
<rect x="37.9858" y="123.778" width="6.09569" height="6.09457" transform="rotate(180 37.9858 123.778)" fill="#FF9500"/>
<rect x="31.8896" y="123.778" width="6.09569" height="6.09457" transform="rotate(180 31.8896 123.778)" fill="#FF9500"/>
<rect x="31.8896" y="129.872" width="6.09569" height="6.09457" transform="rotate(180 31.8896 129.872)" fill="#FF9500"/>
<rect x="31.8896" y="135.967" width="6.09569" height="6.09457" transform="rotate(180 31.8896 135.967)" fill="#FF9500"/>
<rect x="37.9858" y="129.872" width="6.09569" height="6.09457" transform="rotate(180 37.9858 129.872)" fill="#FF9500"/>
<rect x="37.9858" y="135.967" width="6.09569" height="6.09457" transform="rotate(180 37.9858 135.967)" fill="#FF9500"/>
<rect x="37.9858" y="142.061" width="6.09569" height="6.09457" transform="rotate(180 37.9858 142.061)" fill="#FF9500"/>
<rect x="44.0796" y="142.061" width="6.09569" height="6.09457" transform="rotate(180 44.0796 142.061)" fill="#FF9500"/>
<rect x="44.0796" y="148.156" width="6.09569" height="6.09457" transform="rotate(180 44.0796 148.156)" fill="#FF9500"/>
<rect x="50.1758" y="148.156" width="6.09569" height="6.09457" transform="rotate(180 50.1758 148.156)" fill="#FF9500"/>
<rect x="56.2715" y="148.156" width="6.09569" height="6.09457" transform="rotate(180 56.2715 148.156)" fill="#FF9500"/>
<rect x="56.2715" y="154.251" width="6.09569" height="6.09457" transform="rotate(180 56.2715 154.251)" fill="#FF9500"/>
<rect x="62.3652" y="154.251" width="6.09569" height="6.09457" transform="rotate(180 62.3652 154.251)" fill="#FF9500"/>
<rect x="68.4639" y="160.345" width="6.09569" height="6.09457" transform="rotate(180 68.4639 160.345)" fill="#FF9500"/>
<rect x="74.5576" y="160.345" width="6.09569" height="6.09457" transform="rotate(180 74.5576 160.345)" fill="#FF9500"/>
<rect x="74.5576" y="166.44" width="6.09569" height="6.09457" transform="rotate(180 74.5576 166.44)" fill="#FF9500"/>
<rect x="80.6538" y="166.44" width="6.09569" height="6.09457" transform="rotate(180 80.6538 166.44)" fill="#FF9500"/>
<rect x="86.75" y="166.44" width="6.09569" height="6.09457" transform="rotate(180 86.75 166.44)" fill="#FF9500"/>
<rect x="86.75" y="172.535" width="6.09569" height="6.09457" transform="rotate(180 86.75 172.535)" fill="#FF9500"/>
<rect x="92.8457" y="166.44" width="6.09569" height="6.09457" transform="rotate(180 92.8457 166.44)" fill="#FF9500"/>
<rect x="92.8457" y="172.535" width="6.09569" height="6.09457" transform="rotate(180 92.8457 172.535)" fill="#FF9500"/>
<rect x="98.9395" y="166.44" width="6.09569" height="6.09457" transform="rotate(180 98.9395 166.44)" fill="#FF9500"/>
<rect x="98.9395" y="172.535" width="6.09569" height="6.09457" transform="rotate(180 98.9395 172.535)" fill="#FF9500"/>
<rect x="105.038" y="166.44" width="6.09569" height="6.09457" transform="rotate(180 105.038 166.44)" fill="#FF9500"/>
<rect x="105.038" y="172.535" width="6.09569" height="6.09457" transform="rotate(180 105.038 172.535)" fill="#FF9500"/>
<rect x="111.134" y="166.44" width="6.09569" height="6.09457" transform="rotate(180 111.134 166.44)" fill="#FF9500"/>
<rect x="111.134" y="172.535" width="6.09569" height="6.09457" transform="rotate(180 111.134 172.535)" fill="#FF9500"/>
<rect x="30.478" y="0.00012207" width="6.09569" height="6.09457" fill="#FF9500"/>
<rect x="30.478" y="6.09467" width="6.09569" height="6.09457" fill="#FF9500"/>
<rect x="30.478" y="12.1891" width="6.09569" height="6.09457" fill="#FF9500"/>
<rect x="18.2881" y="6.09467" width="6.09569" height="6.09457" fill="#FF9500"/>
<rect x="18.2881" y="12.1891" width="6.09569" height="6.09457" fill="#FF9500"/>
<rect x="18.2881" y="18.2837" width="6.09569" height="6.09457" fill="#FF9500"/>
<rect x="18.2881" y="24.3781" width="6.09569" height="6.09457" fill="#FF9500"/>
<rect x="12.1924" y="30.4731" width="6.09569" height="6.09457" fill="#FF9500"/>
<rect x="12.1924" y="36.5675" width="6.09569" height="6.09457" fill="#FF9500"/>
<rect x="12.1924" y="6.09467" width="6.09569" height="6.09457" fill="#FF9500"/>
<rect x="12.1924" y="12.1891" width="6.09569" height="6.09457" fill="#FF9500"/>
<rect x="12.1924" y="18.2837" width="6.09569" height="6.09457" fill="#FF9500"/>
<rect x="12.1924" y="24.3781" width="6.09569" height="6.09457" fill="#FF9500"/>
<rect x="6.09619" y="30.4731" width="6.09569" height="6.09457" fill="#FF9500"/>
<rect x="6.09619" y="36.5675" width="6.09569" height="6.09457" fill="#FF9500"/>
<rect x="6.09619" y="18.2837" width="6.09569" height="6.09457" fill="#FF9500"/>
<rect x="6.09619" y="24.3781" width="6.09569" height="6.09457" fill="#FF9500"/>
<rect y="30.4731" width="6.09569" height="6.09457" fill="#FF9500"/>
<rect y="36.5675" width="6.09569" height="6.09457" fill="#FF9500"/>
<rect x="36.5742" y="0.00012207" width="6.09569" height="6.09457" fill="#FF9500"/>
<rect x="36.5742" y="6.09467" width="6.09569" height="6.09457" fill="#FF9500"/>
<rect x="24.3843" y="6.09467" width="6.09569" height="6.09457" fill="#FF9500"/>
<rect x="24.3843" y="12.1891" width="6.09569" height="6.09457" fill="#FF9500"/>
<rect x="42.6704" y="0.00012207" width="6.09569" height="6.09457" fill="#FF9500"/>
<rect x="42.6704" y="6.09467" width="6.09569" height="6.09457" fill="#FF9500"/>
<rect x="48.7642" y="0.00012207" width="6.09569" height="6.09457" fill="#FF9500"/>
<rect x="48.7642" y="6.09467" width="6.09569" height="6.09457" fill="#FF9500"/>
<rect x="54.8623" y="0.00012207" width="6.09569" height="6.09457" fill="#FF9500"/>
<rect x="54.8623" y="6.09467" width="6.09569" height="6.09457" fill="#FF9500"/>
<rect x="67.0522" y="6.09467" width="6.09569" height="6.09457" fill="#FF9500"/>
<rect x="67.0522" y="12.1891" width="6.09569" height="6.09457" fill="#FF9500"/>
<rect x="60.9585" y="0.00012207" width="6.09569" height="6.09457" fill="#FF9500"/>
<rect x="60.9585" y="6.09467" width="6.09569" height="6.09457" fill="#FF9500"/>
<rect x="60.9585" y="12.1891" width="6.09569" height="6.09457" fill="#FF9500"/>
<rect x="73.1484" y="6.09467" width="6.09569" height="6.09457" fill="#FF9500"/>
<rect x="73.1484" y="12.1891" width="6.09569" height="6.09457" fill="#FF9500"/>
<rect x="73.1484" y="18.2837" width="6.09569" height="6.09457" fill="#FF9500"/>
<rect x="73.1484" y="24.3781" width="6.09569" height="6.09457" fill="#FF9500"/>
<rect x="79.2446" y="6.09467" width="6.09569" height="6.09457" fill="#FF9500"/>
<rect x="79.2446" y="12.1891" width="6.09569" height="6.09457" fill="#FF9500"/>
<rect x="79.2446" y="18.2837" width="6.09569" height="6.09457" fill="#FF9500"/>
<rect x="79.2446" y="24.3781" width="6.09569" height="6.09457" fill="#FF9500"/>
<rect x="79.2446" y="30.4731" width="6.09569" height="6.09457" fill="#FF9500"/>
<rect x="79.2446" y="36.5675" width="6.09569" height="6.09457" fill="#FF9500"/>
<rect x="85.3384" y="18.2837" width="6.09569" height="6.09457" fill="#FF9500"/>
<rect x="85.3384" y="24.3781" width="6.09569" height="6.09457" fill="#FF9500"/>
<rect x="85.3384" y="30.4731" width="6.09569" height="6.09457" fill="#FF9500"/>
<rect x="85.3384" y="36.5675" width="6.09569" height="6.09457" fill="#FF9500"/>
<rect x="91.4365" y="30.4731" width="6.09569" height="6.09457" fill="#FF9500"/>
<rect x="91.4365" y="36.5675" width="6.09569" height="6.09457" fill="#FF9500"/>
<rect width="6.09569" height="6.09457" transform="matrix(1 0 0 -1 30.478 85.324)" fill="#FF9500"/>
<rect width="6.09569" height="6.09457" transform="matrix(1 0 0 -1 30.478 79.2295)" fill="#FF9500"/>
<rect width="6.09569" height="6.09457" transform="matrix(1 0 0 -1 30.478 73.1352)" fill="#FF9500"/>
<rect width="6.09569" height="6.09457" transform="matrix(1 0 0 -1 18.2881 79.2295)" fill="#FF9500"/>
<rect width="6.09569" height="6.09457" transform="matrix(1 0 0 -1 18.2881 73.1352)" fill="#FF9500"/>
<rect width="6.09569" height="6.09457" transform="matrix(1 0 0 -1 18.2881 67.0402)" fill="#FF9500"/>
<rect width="6.09569" height="6.09457" transform="matrix(1 0 0 -1 18.2881 60.9458)" fill="#FF9500"/>
<rect width="6.09569" height="6.09457" transform="matrix(1 0 0 -1 12.1924 54.8512)" fill="#FF9500"/>
<rect width="6.09569" height="6.09457" transform="matrix(1 0 0 -1 12.1924 48.7567)" fill="#FF9500"/>
<rect width="6.09569" height="6.09457" transform="matrix(1 0 0 -1 12.1924 79.2295)" fill="#FF9500"/>
<rect width="6.09569" height="6.09457" transform="matrix(1 0 0 -1 12.1924 73.1352)" fill="#FF9500"/>
<rect width="6.09569" height="6.09457" transform="matrix(1 0 0 -1 12.1924 67.0402)" fill="#FF9500"/>
<rect width="6.09569" height="6.09457" transform="matrix(1 0 0 -1 12.1924 60.9458)" fill="#FF9500"/>
<rect width="6.09569" height="6.09457" transform="matrix(1 0 0 -1 6.09619 54.8512)" fill="#FF9500"/>
<rect width="6.09569" height="6.09457" transform="matrix(1 0 0 -1 6.09619 48.7567)" fill="#FF9500"/>
<rect width="6.09569" height="6.09457" transform="matrix(1 0 0 -1 6.09619 67.0402)" fill="#FF9500"/>
<rect width="6.09569" height="6.09457" transform="matrix(1 0 0 -1 6.09619 60.9458)" fill="#FF9500"/>
<rect width="6.09569" height="6.09457" transform="matrix(1 0 0 -1 0 54.8512)" fill="#FF9500"/>
<rect width="6.09569" height="6.09457" transform="matrix(1 0 0 -1 0 48.7567)" fill="#FF9500"/>
<rect width="6.09569" height="6.09457" transform="matrix(1 0 0 -1 36.5742 85.324)" fill="#FF9500"/>
<rect width="6.09569" height="6.09457" transform="matrix(1 0 0 -1 36.5742 79.2295)" fill="#FF9500"/>
<rect width="6.09569" height="6.09457" transform="matrix(1 0 0 -1 24.3843 79.2295)" fill="#FF9500"/>
<rect width="6.09569" height="6.09457" transform="matrix(1 0 0 -1 24.3843 73.1352)" fill="#FF9500"/>
<rect width="6.09569" height="6.09457" transform="matrix(1 0 0 -1 42.6704 85.324)" fill="#FF9500"/>
<rect width="6.09569" height="6.09457" transform="matrix(1 0 0 -1 42.6704 79.2295)" fill="#FF9500"/>
<rect width="6.09569" height="6.09457" transform="matrix(1 0 0 -1 48.7642 85.324)" fill="#FF9500"/>
<rect width="6.09569" height="6.09457" transform="matrix(1 0 0 -1 48.7642 79.2295)" fill="#FF9500"/>
<rect width="6.09569" height="6.09457" transform="matrix(1 0 0 -1 54.8623 85.324)" fill="#FF9500"/>
<rect width="6.09569" height="6.09457" transform="matrix(1 0 0 -1 54.8623 79.2295)" fill="#FF9500"/>
<rect width="6.09569" height="6.09457" transform="matrix(1 0 0 -1 67.0522 79.2295)" fill="#FF9500"/>
<rect width="6.09569" height="6.09457" transform="matrix(1 0 0 -1 67.0522 73.1352)" fill="#FF9500"/>
<rect width="6.09569" height="6.09457" transform="matrix(1 0 0 -1 60.9585 85.324)" fill="#FF9500"/>
<rect width="6.09569" height="6.09457" transform="matrix(1 0 0 -1 60.9585 79.2295)" fill="#FF9500"/>
<rect width="6.09569" height="6.09457" transform="matrix(1 0 0 -1 60.9585 73.1352)" fill="#FF9500"/>
<rect width="6.09569" height="6.09457" transform="matrix(1 0 0 -1 73.1484 79.2295)" fill="#FF9500"/>
<rect width="6.09569" height="6.09457" transform="matrix(1 0 0 -1 73.1484 73.1352)" fill="#FF9500"/>
<rect width="6.09569" height="6.09457" transform="matrix(1 0 0 -1 73.1484 67.0402)" fill="#FF9500"/>
<rect width="6.09569" height="6.09457" transform="matrix(1 0 0 -1 73.1484 60.9458)" fill="#FF9500"/>
<rect width="6.09569" height="6.09457" transform="matrix(1 0 0 -1 79.2446 79.2295)" fill="#FF9500"/>
<rect width="6.09569" height="6.09457" transform="matrix(1 0 0 -1 79.2446 73.1352)" fill="#FF9500"/>
<rect width="6.09569" height="6.09457" transform="matrix(1 0 0 -1 79.2446 67.0402)" fill="#FF9500"/>
<rect width="6.09569" height="6.09457" transform="matrix(1 0 0 -1 79.2446 60.9458)" fill="#FF9500"/>
<rect width="6.09569" height="6.09457" transform="matrix(1 0 0 -1 79.2446 54.8512)" fill="#FF9500"/>
<rect width="6.09569" height="6.09457" transform="matrix(1 0 0 -1 79.2446 48.7567)" fill="#FF9500"/>
<rect width="6.09569" height="6.09457" transform="matrix(1 0 0 -1 85.3384 67.0402)" fill="#FF9500"/>
<rect width="6.09569" height="6.09457" transform="matrix(1 0 0 -1 85.3384 60.9458)" fill="#FF9500"/>
<rect width="6.09569" height="6.09457" transform="matrix(1 0 0 -1 85.3384 54.8512)" fill="#FF9500"/>
<rect width="6.09569" height="6.09457" transform="matrix(1 0 0 -1 85.3384 48.7567)" fill="#FF9500"/>
<rect width="6.09569" height="6.09457" transform="matrix(1 0 0 -1 91.4365 54.8512)" fill="#FF9500"/>
<rect width="6.09569" height="6.09457" transform="matrix(1 0 0 -1 91.4365 48.7567)" fill="#FF9500"/>
<rect x="144.66" y="48.7568" width="6.09569" height="6.09457" fill="#FF9500"/>
<rect x="144.66" y="54.8513" width="6.09569" height="6.09457" fill="#FF9500"/>
<rect x="150.756" y="48.7568" width="6.09569" height="6.09457" fill="#FF9500"/>
<rect x="150.756" y="54.8513" width="6.09569" height="6.09457" fill="#FF9500"/>
<rect x="156.852" y="48.7568" width="6.09569" height="6.09457" fill="#FF9500"/>
<rect x="156.852" y="54.8513" width="6.09569" height="6.09457" fill="#FF9500"/>
<rect x="156.852" y="60.9459" width="6.09569" height="6.09457" fill="#FF9500"/>
<rect x="162.948" y="48.7568" width="6.09569" height="6.09457" fill="#FF9500"/>
<rect x="162.948" y="54.8513" width="6.09569" height="6.09457" fill="#FF9500"/>
<rect x="162.948" y="60.9459" width="6.09569" height="6.09457" fill="#FF9500"/>
<rect x="169.042" y="54.8513" width="6.09569" height="6.09457" fill="#FF9500"/>
<rect x="169.042" y="60.9459" width="6.09569" height="6.09457" fill="#FF9500"/>
<rect x="169.042" y="67.0403" width="6.09569" height="6.09457" fill="#FF9500"/>
<rect x="181.234" y="60.9459" width="6.09569" height="6.09457" fill="#FF9500"/>
<rect x="181.234" y="67.0403" width="6.09569" height="6.09457" fill="#FF9500"/>
<rect x="181.234" y="73.1352" width="6.09569" height="6.09457" fill="#FF9500"/>
<rect x="193.426" y="67.0403" width="6.09569" height="6.09457" fill="#FF9500"/>
<rect x="193.426" y="73.1352" width="6.09569" height="6.09457" fill="#FF9500"/>
<rect x="193.426" y="79.2296" width="6.09569" height="6.09457" fill="#FF9500"/>
<rect x="175.138" y="54.8513" width="6.09569" height="6.09457" fill="#FF9500"/>
<rect x="175.138" y="60.9459" width="6.09569" height="6.09457" fill="#FF9500"/>
<rect x="175.138" y="67.0403" width="6.09569" height="6.09457" fill="#FF9500"/>
<rect x="187.33" y="60.9459" width="6.09569" height="6.09457" fill="#FF9500"/>
<rect x="187.33" y="67.0403" width="6.09569" height="6.09457" fill="#FF9500"/>
<rect x="187.33" y="73.1352" width="6.09569" height="6.09457" fill="#FF9500"/>
<rect x="199.522" y="73.1352" width="6.09569" height="6.09457" fill="#FF9500"/>
<rect x="199.522" y="67.0403" width="6.09569" height="6.09457" fill="#FF9500"/>
<rect x="199.522" y="79.2296" width="6.09569" height="6.09457" fill="#FF9500"/>
<rect x="205.616" y="73.1352" width="6.09569" height="6.09457" fill="#FF9500"/>
<rect x="138.563" y="42.6622" width="6.09569" height="6.09457" fill="#FF9500"/>
<rect x="138.563" y="48.7568" width="6.09569" height="6.09457" fill="#FF9500"/>
<rect x="144.66" y="42.6622" width="6.09569" height="6.09457" fill="#FF9500"/>
<rect x="150.756" y="42.6622" width="6.09569" height="6.09457" fill="#FF9500"/>
<rect width="6.09569" height="6.09457" transform="matrix(1 0 0 -1 144.66 36.5676)" fill="#FF9500"/>
<rect width="6.09569" height="6.09457" transform="matrix(1 0 0 -1 144.66 30.4732)" fill="#FF9500"/>
<rect width="6.09569" height="6.09457" transform="matrix(1 0 0 -1 150.756 36.5676)" fill="#FF9500"/>
<rect width="6.09569" height="6.09457" transform="matrix(1 0 0 -1 150.756 30.4732)" fill="#FF9500"/>
<rect width="6.09569" height="6.09457" transform="matrix(1 0 0 -1 156.852 36.5676)" fill="#FF9500"/>
<rect width="6.09569" height="6.09457" transform="matrix(1 0 0 -1 156.852 30.4732)" fill="#FF9500"/>
<rect width="6.09569" height="6.09457" transform="matrix(1 0 0 -1 156.852 24.3783)" fill="#FF9500"/>
<rect width="6.09569" height="6.09457" transform="matrix(1 0 0 -1 162.948 36.5676)" fill="#FF9500"/>
<rect width="6.09569" height="6.09457" transform="matrix(1 0 0 -1 162.948 30.4732)" fill="#FF9500"/>
<rect width="6.09569" height="6.09457" transform="matrix(1 0 0 -1 162.948 24.3783)" fill="#FF9500"/>
<rect width="6.09569" height="6.09457" transform="matrix(1 0 0 -1 169.042 30.4732)" fill="#FF9500"/>
<rect width="6.09569" height="6.09457" transform="matrix(1 0 0 -1 169.042 24.3783)" fill="#FF9500"/>
<rect width="6.09569" height="6.09457" transform="matrix(1 0 0 -1 169.042 18.2838)" fill="#FF9500"/>
<rect width="6.09569" height="6.09457" transform="matrix(1 0 0 -1 181.234 24.3783)" fill="#FF9500"/>
<rect width="6.09569" height="6.09457" transform="matrix(1 0 0 -1 181.234 18.2838)" fill="#FF9500"/>
<rect width="6.09569" height="6.09457" transform="matrix(1 0 0 -1 181.234 12.1891)" fill="#FF9500"/>
<rect width="6.09569" height="6.09457" transform="matrix(1 0 0 -1 193.426 18.2838)" fill="#FF9500"/>
<rect width="6.09569" height="6.09457" transform="matrix(1 0 0 -1 193.426 12.1891)" fill="#FF9500"/>
<rect width="6.09569" height="6.09457" transform="matrix(1 0 0 -1 193.426 6.09473)" fill="#FF9500"/>
<rect width="6.09569" height="6.09457" transform="matrix(1 0 0 -1 175.138 30.4732)" fill="#FF9500"/>
<rect width="6.09569" height="6.09457" transform="matrix(1 0 0 -1 175.138 24.3783)" fill="#FF9500"/>
<rect width="6.09569" height="6.09457" transform="matrix(1 0 0 -1 175.138 18.2838)" fill="#FF9500"/>
<rect width="6.09569" height="6.09457" transform="matrix(1 0 0 -1 187.33 24.3783)" fill="#FF9500"/>
<rect width="6.09569" height="6.09457" transform="matrix(1 0 0 -1 187.33 18.2838)" fill="#FF9500"/>
<rect width="6.09569" height="6.09457" transform="matrix(1 0 0 -1 187.33 12.1891)" fill="#FF9500"/>
<rect width="6.09569" height="6.09457" transform="matrix(1 0 0 -1 199.522 12.1891)" fill="#FF9500"/>
<rect width="6.09569" height="6.09457" transform="matrix(1 0 0 -1 199.522 18.2838)" fill="#FF9500"/>
<rect width="6.09569" height="6.09457" transform="matrix(1 0 0 -1 199.522 6.09473)" fill="#FF9500"/>
<rect width="6.09569" height="6.09457" transform="matrix(1 0 0 -1 205.616 12.1891)" fill="#FF9500"/>
<rect width="6.09569" height="6.09457" transform="matrix(1 0 0 -1 138.563 42.6622)" fill="#FF9500"/>
<rect width="6.09569" height="6.09457" transform="matrix(1 0 0 -1 138.563 36.5676)" fill="#FF9500"/>
<rect width="6.09569" height="6.09457" transform="matrix(1 0 0 -1 144.66 42.6622)" fill="#FF9500"/>
<rect width="6.09569" height="6.09457" transform="matrix(1 0 0 -1 150.756 42.6622)" fill="#FF9500"/>
</svg>
