<svg width="120" height="60" viewBox="0 0 120 60" fill="none" xmlns="http://www.w3.org/2000/svg">
<g clip-path="url(#clip0_1530_9536)">
<mask id="mask0_1530_9536" style="mask-type:luminance" maskUnits="userSpaceOnUse" x="7" y="8" width="45" height="57">
<path d="M7.36743 8.91602H51.6031V64.0652H7.36743V8.91602Z" fill="white"/>
</mask>
<g mask="url(#mask0_1530_9536)">
<path d="M22.5123 13.9585C22.9355 12.8477 23.5173 11.8252 24.3812 10.9965C27.8368 7.62902 33.5492 8.4753 35.8941 12.7067C37.6572 15.9155 39.526 19.0538 41.342 22.2273L50.4395 38.0598C52.9607 42.4851 50.2279 48.0741 45.2208 48.8322C42.153 49.2906 39.2792 47.8801 37.6924 45.1297L29.688 31.2367C29.6352 31.1309 29.5646 31.0427 29.4941 30.9546C29.212 30.7254 29.0886 30.3904 28.9123 30.0907L23.0236 19.8824C22.336 18.6835 22.0187 17.3789 22.0539 16.0037C22.1068 15.2984 22.195 14.5932 22.5123 13.9585Z" fill="#3C8BD9"/>
<path d="M22.5124 13.958C22.3537 14.5927 22.2127 15.2274 22.1774 15.8974C22.1245 17.3784 22.4948 18.7536 23.2353 20.0406L29.0358 30.0726C29.2121 30.3723 29.3531 30.672 29.5294 30.9541L26.3383 36.4373L21.8777 44.1243C21.8072 44.1243 21.7895 44.089 21.7719 44.0362C21.7543 43.8951 21.8072 43.7717 21.8424 43.6306C22.5653 40.986 21.9658 38.6411 20.1499 36.6312C19.0391 35.4147 17.6287 34.7271 16.0066 34.4979C13.8909 34.1982 12.0221 34.7447 10.3471 36.067C10.0474 36.2962 9.85347 36.6312 9.50086 36.8075C9.43033 36.8075 9.39507 36.7723 9.37744 36.7194L11.8986 32.3293L22.389 14.1519C22.4242 14.0814 22.4771 14.0285 22.5124 13.958Z" fill="#FABC04"/>
<path d="M9.44796 36.7727L10.4529 35.8736C14.7372 32.4884 21.1724 34.9391 22.1069 40.2989C22.3361 41.5859 22.2127 42.8201 21.8248 44.0542C21.8071 44.16 21.7895 44.2482 21.7543 44.354C21.5956 44.6361 21.4545 44.9358 21.2782 45.2179C19.7091 47.8096 17.3994 49.0967 14.367 48.9027C10.8937 48.6559 8.16091 46.0465 7.68488 42.5909C7.45568 40.916 7.79066 39.3468 8.65457 37.9011C8.83088 37.5837 9.04245 37.3016 9.23639 36.9843C9.32454 36.9138 9.28928 36.7727 9.44796 36.7727Z" fill="#34A852"/>
<path d="M9.4479 36.7727C9.37738 36.8432 9.37738 36.9666 9.25396 36.9842C9.23633 36.8608 9.30685 36.7903 9.37738 36.7021L9.4479 36.7727Z" fill="#FABC04"/>
<path d="M21.7543 44.3544C21.6838 44.231 21.7543 44.1428 21.8248 44.0547L21.8954 44.1252L21.7543 44.3544Z" fill="#E1C025"/>
</g>
<mask id="mask1_1530_9536" style="mask-type:luminance" maskUnits="userSpaceOnUse" x="50" y="-92" width="101" height="126">
<path d="M50.1189 -91.8115H150.625V33.4908H50.1189V-91.8115Z" fill="white"/>
</mask>
<g mask="url(#mask1_1530_9536)">
<path d="M58.411 12.5C53.8844 12.5 50.1189 16.1453 50.1189 20.6318C50.1189 25.1184 53.8844 28.7236 58.411 28.7236C60.8545 28.7236 62.6571 27.9225 64.0992 26.4403C65.5814 24.9581 66.022 22.9152 66.022 21.2728C66.022 20.752 65.982 20.2713 65.9019 19.8707H58.411V22.0739H63.7387C63.5785 23.3157 63.1779 24.2371 62.537 24.878C61.7759 25.6391 60.5341 26.5204 58.411 26.5204C55.1262 26.5204 52.5625 23.8766 52.5625 20.6318C52.5625 17.3871 55.1262 14.7433 58.411 14.7433C60.1735 14.7433 61.4955 15.4243 62.4168 16.3456L63.9791 14.7833C62.6571 13.5015 60.8946 12.5 58.411 12.5ZM71.9907 18.3085C69.1466 18.3085 66.7831 20.5117 66.7831 23.5962C66.7831 26.6406 69.1065 28.8838 71.9907 28.8838C74.8749 28.8838 77.1983 26.6406 77.1983 23.5962C77.1983 20.5517 74.8349 18.3085 71.9907 18.3085ZM71.9907 26.8008C70.4285 26.8008 69.0665 25.4789 69.0665 23.5962C69.0665 21.7134 70.4285 20.3915 71.9907 20.3915C73.553 20.3915 74.915 21.6734 74.915 23.5962C74.915 25.4789 73.553 26.8008 71.9907 26.8008ZM83.2872 18.3085C80.403 18.3085 78.0796 20.5117 78.0796 23.5962C78.0796 26.6406 80.403 28.8838 83.2872 28.8838C86.1313 28.8838 88.4947 26.6406 88.4947 23.5962C88.4947 20.5517 86.1714 18.3085 83.2872 18.3085ZM83.2872 26.8008C81.7249 26.8008 80.3629 25.4789 80.3629 23.5962C80.3629 21.7134 81.7249 20.3915 83.2872 20.3915C84.8494 20.3915 86.2114 21.6734 86.2114 23.5962C86.2114 25.4789 84.8895 26.8008 83.2872 26.8008ZM94.5436 18.3085C91.9398 18.3085 89.5763 20.5918 89.5763 23.5561C89.5763 26.4803 91.9398 28.7637 94.5436 28.7637C95.7854 28.7637 96.7468 28.2029 97.2675 27.5619H97.3476V28.323C97.3476 30.3259 96.3061 31.4075 94.5836 31.4075C93.1816 31.4075 92.3403 30.4061 91.9798 29.5648L89.9769 30.4061C90.5377 31.8081 92.0599 33.4905 94.5836 33.4905C97.2675 33.4905 99.5108 31.8882 99.5108 28.0426V18.669H97.3476V19.5102H97.2675C96.7468 18.8693 95.7854 18.3085 94.5436 18.3085ZM94.7438 26.7207C93.1816 26.7207 91.8596 25.3988 91.8596 23.5561C91.8596 21.7134 93.1816 20.3514 94.7438 20.3514C96.3061 20.3514 97.5079 21.7134 97.5079 23.5561C97.5079 25.3988 96.3061 26.7207 94.7438 26.7207ZM101.193 13.1409H103.477V28.6034H101.193V13.1409ZM109.605 18.3085C106.882 18.3085 104.598 20.4315 104.598 23.5962C104.598 26.5605 106.841 28.8838 109.846 28.8838C112.289 28.8838 113.691 27.4017 114.252 26.5605L112.45 25.3587C111.849 26.24 111.008 26.8008 109.846 26.8008C108.644 26.8008 107.803 26.2801 107.282 25.1985L114.372 22.2742L114.132 21.6733C113.691 20.5117 112.329 18.3085 109.605 18.3085ZM106.882 23.4359C106.801 21.3929 108.484 20.3514 109.646 20.3514C110.567 20.3514 111.368 20.7921 111.608 21.4731L106.882 23.4359Z" fill="#757575"/>
</g>
<mask id="mask2_1530_9536" style="mask-type:luminance" maskUnits="userSpaceOnUse" x="-4" y="-73" width="102" height="126">
<path d="M-3.07373 -72.9951H97.4325V52.3072H-3.07373V-72.9951Z" fill="white"/>
</mask>
<g mask="url(#mask2_1530_9536)">
<path d="M65.1855 47.1796L70.4732 33.1191H72.5162L77.8039 47.1796H75.801L74.439 43.3741H68.5504L67.1885 47.1796H65.1855ZM69.1513 41.6916H73.8381L71.5548 35.3624H71.4747L69.1513 41.6916ZM79.6466 46.0179C78.7653 45.0165 78.3247 43.8147 78.3247 42.3726C78.3247 40.9706 78.7653 39.7688 79.6466 38.7273C80.5679 37.7258 81.6095 37.2452 82.8913 37.2452C83.6124 37.2452 84.2533 37.4054 84.8141 37.6858C85.415 38.0063 85.8556 38.3668 86.1761 38.8875H86.2562L86.1761 37.5656V33.1191H87.9787V47.1796H86.2562V45.8577H86.1761C85.8556 46.3384 85.415 46.739 84.8141 47.0594C84.2132 47.3799 83.5723 47.5001 82.8913 47.5001C81.6095 47.5001 80.5279 47.0194 79.6466 46.0179ZM85.3349 44.8963C85.9357 44.2553 86.2162 43.4141 86.2162 42.3726C86.2162 41.3712 85.9357 40.5299 85.3349 39.889C84.7741 39.2481 84.053 38.9276 83.1717 38.9276C82.2904 38.9276 81.5694 39.2481 81.0086 39.889C80.4077 40.5299 80.1273 41.3712 80.1273 42.3726C80.1273 43.3741 80.4077 44.2153 81.0086 44.8562C81.6094 45.4972 82.3305 45.8176 83.1717 45.8176C84.053 45.8577 84.7741 45.5372 85.3349 44.8963ZM96.3109 46.6188C95.5898 47.1796 94.6685 47.5001 93.5468 47.5001C92.5854 47.5001 91.7442 47.2597 90.9831 46.739C90.262 46.2182 89.7413 45.5773 89.4208 44.736L91.0232 44.0551C91.2635 44.6159 91.584 45.0966 92.0647 45.417C92.5053 45.7375 93.0261 45.8977 93.5468 45.8977C94.1076 45.8977 94.5883 45.7776 94.9889 45.5372C95.3895 45.2969 95.5497 44.9764 95.5497 44.6559C95.5497 44.0551 95.069 43.5744 94.1477 43.2939L92.5053 42.8934C90.6226 42.4127 89.7012 41.5314 89.7012 40.1694C89.7012 39.2881 90.0618 38.6071 90.7828 38.0463C91.5039 37.5256 92.4252 37.2452 93.5068 37.2452C94.3203 37.2397 95.1212 37.4468 95.8301 37.846C96.5111 38.2466 96.9918 38.8074 97.2722 39.4884L95.6699 40.1694C95.4696 39.7688 95.1892 39.4484 94.7886 39.208C94.3881 38.9677 93.9074 38.8475 93.3866 38.8475C92.9059 38.8475 92.5053 38.9677 92.1047 39.208C91.7442 39.4484 91.5439 39.7288 91.5439 40.0893C91.5439 40.6501 92.0647 41.0507 93.1062 41.251L94.5483 41.6115C96.4711 42.0922 97.3924 43.0536 97.3924 44.4957C97.4325 45.3369 97.0319 46.058 96.3109 46.6188Z" fill="#757575"/>
</g>
</g>
<defs>
<clipPath id="clip0_1530_9536">
<rect width="120" height="60" fill="white"/>
</clipPath>
</defs>
</svg>
