<svg width="142" height="21" viewBox="0 0 142 21" fill="none" xmlns="http://www.w3.org/2000/svg">
<path fill-rule="evenodd" clip-rule="evenodd" d="M32.4165 5.66001e-06L22.068 20.1972L12.3533 20.1972L16.6873 11.821L16.4957 11.821C12.9283 16.4581 7.59185 19.5053 -3.5363e-06 20.1972L-2.09033e-06 11.9387C-2.09033e-06 11.9387 4.86468 11.659 7.70978 8.65596L-1.51556e-06 8.65595L0 0L8.66798 1.51345e-06L8.66797 7.12497L8.85961 7.12497L12.3976 2.16465e-06L18.9575 3.31004e-06L18.9575 7.08081L19.1491 7.08081L22.8198 3.9844e-06L32.4165 5.66001e-06Z" fill="#127DFF"/>
<path d="M41.2129 5.06898L44.758 5.06898C45.3862 5.06898 45.9337 5.19445 46.4094 5.4454C46.8851 5.69635 47.253 6.05485 47.5133 6.50297C47.7736 6.96006 47.9082 7.47092 47.9082 8.04452C47.9082 8.61812 47.7736 9.13794 47.5133 9.59503C47.253 10.0432 46.8851 10.4017 46.4094 10.6526C45.9337 10.9035 45.3773 11.029 44.749 11.029L42.3348 11.029L42.3348 9.60399L44.5246 9.60399C44.8567 9.60399 45.1439 9.54125 45.3862 9.40682C45.6286 9.27238 45.817 9.09313 45.9427 8.8601C46.0773 8.62708 46.1401 8.35821 46.1491 8.05348C46.1491 7.74876 46.0863 7.47988 45.9517 7.24686C45.826 7.01383 45.6375 6.82562 45.3862 6.70015C45.1439 6.56571 44.8477 6.50297 44.5157 6.50297L42.9092 6.50297L42.9092 14.1032L41.2219 14.1032L41.2219 5.05105L41.2129 5.06898ZM48.9672 7.29167L50.5289 7.29167L50.5289 8.68086L50.3045 8.70774C50.3763 8.39406 50.5109 8.11622 50.6994 7.8832C50.8879 7.65017 51.1212 7.47092 51.3815 7.34545C51.6507 7.21997 51.9379 7.15723 52.2521 7.15723C52.3059 7.15723 52.3598 7.15723 52.4046 7.15723C52.4585 7.15723 52.5034 7.1662 52.5482 7.17516L52.5482 8.70774C52.5482 8.70774 52.4495 8.68086 52.3687 8.68086C52.288 8.67189 52.2072 8.66293 52.1264 8.66293C51.8123 8.66293 51.543 8.71671 51.3097 8.84218C51.0763 8.95869 50.8968 9.13794 50.7622 9.37097C50.6366 9.60399 50.5737 9.88183 50.5737 10.2134L50.5737 14.1121L48.9672 14.1121L48.9672 7.28271L48.9672 7.29167ZM56.551 14.2734C55.8689 14.2734 55.2676 14.13 54.7381 13.8343C54.2176 13.5385 53.8137 13.1262 53.5265 12.5885C53.2393 12.0507 53.0867 11.4234 53.0867 10.7243C53.0867 10.0252 53.2303 9.4337 53.5265 8.89596C53.8227 8.34924 54.2265 7.92801 54.7381 7.62328C55.2587 7.31856 55.842 7.1662 56.4972 7.1662C57.1883 7.1662 57.7986 7.31856 58.3281 7.62328C58.8576 7.92801 59.2615 8.38509 59.5397 8.98558C59.8179 9.58607 59.9256 10.2941 59.8628 11.1276L53.7778 11.1276L53.7778 10.0432L58.6332 10.0252L58.1935 10.2134C58.1935 9.87287 58.1127 9.56814 57.9691 9.29927C57.8345 9.03039 57.637 8.82426 57.3767 8.68086C57.1254 8.53746 56.8382 8.45679 56.5151 8.45679C56.1741 8.45679 55.8689 8.53746 55.5997 8.69878C55.3305 8.86011 55.1151 9.09313 54.9625 9.38889C54.8099 9.68465 54.7381 10.0163 54.7381 10.3837L54.7381 10.9932C54.7381 11.3875 54.8099 11.7371 54.9625 12.0418C55.1151 12.3375 55.3305 12.5706 55.6087 12.7409C55.8869 12.9022 56.192 12.9828 56.5421 12.9828C56.7934 12.9828 57.0267 12.938 57.2421 12.8574C57.4575 12.7677 57.637 12.6512 57.7896 12.4989C57.9332 12.3465 58.0409 12.1673 58.1037 11.9701L59.782 11.9701C59.6923 12.4272 59.4858 12.8215 59.1897 13.18C58.8935 13.5296 58.5076 13.8074 58.0499 14.0046C57.5921 14.1928 57.0806 14.2914 56.5331 14.2914L56.551 14.2734ZM61.0654 7.29167L62.645 7.29167L62.645 8.87803L62.3847 8.80633C62.4476 8.48368 62.5912 8.20584 62.8066 7.9549C63.0309 7.70395 63.3002 7.50677 63.6233 7.36337C63.9464 7.21997 64.2874 7.14827 64.6464 7.15723C65.0144 7.15723 65.3554 7.21997 65.6516 7.36337C65.9568 7.50677 66.1991 7.69498 66.3786 7.9549C66.5671 8.20584 66.6837 8.49264 66.7376 8.81529L66.3965 8.78841C66.4683 8.48368 66.6209 8.20584 66.8363 7.9549C67.0517 7.70395 67.3299 7.51573 67.662 7.37233C67.9941 7.22893 68.3441 7.15723 68.739 7.1662C69.1967 7.1662 69.6006 7.26478 69.9506 7.46196C70.3096 7.65017 70.5789 7.93697 70.7763 8.30443C70.9738 8.67189 71.0725 9.10209 71.0725 9.59503L71.0725 14.139L69.439 14.139L69.439 9.84598C69.439 9.56814 69.3852 9.33512 69.2775 9.13794C69.1788 8.94973 69.0262 8.79737 68.8377 8.69878C68.6492 8.60019 68.4338 8.55538 68.1915 8.55538C67.9492 8.55538 67.7069 8.60916 67.5094 8.72567C67.312 8.84218 67.1594 9.00351 67.0517 9.21861C66.944 9.42474 66.8902 9.65777 66.8902 9.92664L66.8902 14.139L65.2567 14.139L65.2567 9.77428C65.2567 9.53229 65.2029 9.31719 65.1041 9.13794C65.0054 8.94973 64.8618 8.81529 64.6823 8.71671C64.5028 8.61812 64.2964 8.56434 64.0541 8.56434C63.8028 8.56434 63.5694 8.62708 63.363 8.75256C63.1566 8.87803 62.995 9.04832 62.8784 9.28134C62.7617 9.5054 62.6989 9.75635 62.6989 10.0432L62.6989 14.148L61.0744 14.148L61.0744 7.31856L61.0654 7.29167ZM72.5354 7.29167L74.1599 7.29167L74.1599 14.1211L72.5354 14.1211L72.5354 7.29167ZM72.4995 4.68359L74.2317 4.68359L74.2317 6.36854L72.4995 6.36854L72.4995 4.68359ZM80.0025 7.29167L81.6449 7.29167L81.6449 14.1211L80.0474 14.1211L80.0474 12.714L80.3167 12.6064C80.2359 12.9291 80.0923 13.2159 79.8679 13.4668C79.6435 13.7178 79.3743 13.9149 79.0512 14.0583C78.7281 14.1928 78.387 14.2555 78.0191 14.2555C77.5344 14.2555 77.1126 14.1569 76.7536 13.9508C76.3946 13.7447 76.1074 13.4399 75.91 13.0545C75.7125 12.6692 75.6138 12.2121 75.6138 11.6923L75.6138 7.29167L77.2562 7.29167L77.2562 11.3696C77.2562 11.6743 77.3101 11.9432 77.4088 12.1583C77.5075 12.3824 77.6601 12.5437 77.8486 12.6602C78.037 12.7767 78.2704 12.8305 78.5396 12.8305C78.8089 12.8305 79.0691 12.7588 79.2845 12.6243C79.5089 12.4899 79.6794 12.3017 79.8141 12.0508C79.9487 11.7998 80.0115 11.522 80.0115 11.2083L80.0115 7.28271L80.0025 7.29167ZM83.1527 7.29167L84.7323 7.29167L84.7323 8.87803L84.472 8.80633C84.5349 8.48368 84.6785 8.20585 84.8939 7.9549C85.1182 7.70395 85.3875 7.50677 85.7106 7.36337C86.0337 7.21997 86.3747 7.14827 86.7337 7.15724C87.1017 7.15724 87.4428 7.21997 87.7389 7.36337C88.0441 7.50677 88.2864 7.69498 88.4659 7.9549C88.6544 8.20585 88.771 8.49265 88.8249 8.81529L88.4838 8.78841C88.5556 8.48368 88.7082 8.20585 88.9236 7.9549C89.139 7.70395 89.4172 7.51574 89.7493 7.37234C90.0724 7.22894 90.4314 7.15724 90.8263 7.1662C91.284 7.1662 91.6879 7.26479 92.0379 7.46196C92.3969 7.65017 92.6662 7.93697 92.8636 8.30443C93.0611 8.6719 93.1598 9.10209 93.1598 9.59503L93.1598 14.139L91.5263 14.139L91.5263 9.84598C91.5263 9.56814 91.4725 9.33512 91.3648 9.13794C91.2661 8.94973 91.1135 8.79737 90.925 8.69878C90.7365 8.6002 90.5211 8.55538 90.2788 8.55538C90.0365 8.55538 89.8032 8.60916 89.5967 8.72567C89.3993 8.84218 89.2467 9.00351 89.139 9.21861C89.0313 9.42474 88.9685 9.65777 88.9685 9.92664L88.9685 14.139L87.335 14.139L87.335 9.77428C87.335 9.53229 87.2812 9.31719 87.1825 9.13794C87.0838 8.95869 86.9402 8.81529 86.7607 8.71671C86.5812 8.61812 86.3747 8.56434 86.1324 8.56434C85.8811 8.56434 85.6478 8.62708 85.4413 8.75256C85.2349 8.87803 85.0734 9.04832 84.9567 9.28134C84.84 9.50541 84.7772 9.75636 84.7772 10.0432L84.7772 14.148L83.1527 14.148L83.1527 7.31856L83.1527 7.29167ZM97.6562 5.06898L101.192 5.06898C101.821 5.06898 102.368 5.19445 102.844 5.4454C103.319 5.69635 103.687 6.05485 103.948 6.50298C104.208 6.96006 104.343 7.47092 104.343 8.04452C104.343 8.61812 104.208 9.13795 103.948 9.59503C103.687 10.0432 103.319 10.4017 102.844 10.6526C102.368 10.9036 101.812 11.029 101.183 11.029L98.7691 11.029L98.7691 9.60399L100.959 9.60399C101.291 9.60399 101.578 9.54126 101.821 9.40682C102.063 9.27238 102.251 9.09313 102.377 8.86011C102.512 8.62708 102.574 8.35821 102.574 8.05348C102.574 7.74876 102.512 7.47989 102.377 7.24686C102.251 7.01384 102.063 6.82562 101.812 6.70015C101.569 6.56571 101.273 6.50298 100.941 6.50298L99.3345 6.50298L99.3345 14.1032L97.6472 14.1032L97.6472 5.05105L97.6562 5.06898ZM108.121 14.2466C107.529 14.2466 106.999 14.0942 106.532 13.7984C106.066 13.4937 105.698 13.0814 105.437 12.5437C105.168 12.0059 105.043 11.3875 105.043 10.6885C105.043 9.98938 105.177 9.37097 105.437 8.83322C105.707 8.29547 106.075 7.8832 106.55 7.5964C107.017 7.30064 107.556 7.15724 108.148 7.15724C108.543 7.15724 108.911 7.22894 109.252 7.3813C109.593 7.5247 109.871 7.73084 110.095 7.98178C110.32 8.23273 110.463 8.51057 110.535 8.80633L110.239 8.80633L110.239 7.28271L111.873 7.28271L111.873 14.1121L110.257 14.1121L110.257 12.7767L110.553 12.5975C110.454 12.9022 110.284 13.1711 110.051 13.422C109.817 13.673 109.53 13.8701 109.189 14.0135C108.857 14.1569 108.498 14.2376 108.121 14.2376L108.121 14.2466ZM108.462 12.8574C108.812 12.8574 109.126 12.7678 109.404 12.5885C109.683 12.4003 109.898 12.1493 110.051 11.8267C110.203 11.4951 110.284 11.1187 110.284 10.6974C110.284 10.2762 110.212 9.89976 110.06 9.56814C109.907 9.24549 109.692 8.98558 109.413 8.80633C109.135 8.62708 108.821 8.53746 108.471 8.53746C108.121 8.53746 107.816 8.62708 107.556 8.80633C107.295 8.98558 107.089 9.24549 106.945 9.56814C106.802 9.89079 106.73 10.2672 106.73 10.6885C106.73 11.1097 106.802 11.4861 106.945 11.8177C107.089 12.1404 107.295 12.4003 107.556 12.5795C107.825 12.7677 108.13 12.8574 108.471 12.8574L108.462 12.8574ZM113.362 7.29167L114.924 7.29167L114.924 8.68086L114.7 8.70775C114.771 8.39406 114.906 8.11622 115.095 7.8832C115.283 7.65017 115.516 7.47092 115.786 7.34545C116.055 7.21997 116.342 7.15724 116.656 7.15724C116.71 7.15724 116.764 7.15724 116.809 7.15724C116.863 7.15724 116.907 7.1662 116.952 7.17516L116.952 8.70775C116.952 8.70775 116.854 8.68086 116.773 8.68086C116.692 8.6719 116.611 8.66293 116.53 8.66293C116.216 8.66293 115.947 8.71671 115.714 8.84218C115.48 8.9587 115.301 9.13795 115.166 9.37097C115.041 9.60399 114.978 9.88183 114.978 10.2134L114.978 14.1121L113.371 14.1121L113.371 7.28271L113.362 7.29167ZM119.043 5.63362L120.659 5.63362L120.659 14.1211L119.043 14.1211L119.043 5.63362ZM117.805 7.29167L121.906 7.29167L121.906 8.62708L117.805 8.62708L117.805 7.29167ZM124.5 14.1211L122.858 14.1211L122.858 7.29167L124.455 7.29167L124.455 8.69878L124.186 8.80633C124.267 8.48368 124.41 8.19688 124.635 7.94594C124.859 7.69499 125.128 7.49781 125.452 7.36337C125.775 7.22894 126.116 7.15724 126.484 7.15724C126.968 7.15724 127.39 7.26479 127.758 7.47092C128.126 7.67706 128.404 7.97282 128.602 8.35821C128.799 8.7436 128.898 9.20068 128.898 9.72051L128.898 14.1211L127.256 14.1211L127.256 10.0432C127.256 9.73843 127.202 9.46956 127.103 9.25446C127.004 9.0304 126.852 8.86907 126.663 8.75256C126.475 8.63605 126.241 8.58227 125.972 8.58227C125.703 8.58227 125.443 8.65397 125.227 8.78841C125.003 8.92285 124.832 9.11106 124.698 9.36201C124.563 9.604 124.5 9.89079 124.5 10.2045L124.5 14.13L124.5 14.1211ZM133.502 14.2734C132.82 14.2734 132.219 14.13 131.689 13.8343C131.169 13.5385 130.765 13.1263 130.478 12.5885C130.19 12.0508 130.038 11.4234 130.038 10.7243C130.038 10.0252 130.181 9.43371 130.478 8.89596C130.774 8.34925 131.178 7.92801 131.689 7.62329C132.21 7.31856 132.793 7.1662 133.448 7.1662C134.139 7.1662 134.75 7.31856 135.279 7.62329C135.809 7.92801 136.213 8.3851 136.491 8.98558C136.769 9.58607 136.877 10.2941 136.814 11.1276L130.729 11.1276L130.729 10.0432L135.584 10.0252L135.144 10.2134C135.144 9.87287 135.064 9.56815 134.92 9.29927C134.777 9.0304 134.588 8.82426 134.328 8.68086C134.076 8.53746 133.789 8.4568 133.466 8.4568C133.125 8.4568 132.82 8.53746 132.551 8.69879C132.281 8.86011 132.066 9.09313 131.914 9.38889C131.761 9.68466 131.689 10.0163 131.689 10.3837L131.689 10.9932C131.689 11.3875 131.761 11.7371 131.914 12.0418C132.066 12.3376 132.281 12.5706 132.56 12.7409C132.838 12.9022 133.143 12.9828 133.493 12.9828C133.744 12.9828 133.978 12.938 134.193 12.8574C134.409 12.7678 134.588 12.6512 134.741 12.4989C134.884 12.3465 134.992 12.1673 135.064 11.9701L136.742 11.9701C136.652 12.4272 136.446 12.8215 136.15 13.18C135.854 13.5296 135.468 13.8074 135.01 14.0046C134.552 14.1928 134.041 14.2914 133.493 14.2914L133.502 14.2734ZM138.016 7.29168L139.578 7.29168L139.578 8.68086L139.354 8.70775C139.426 8.39406 139.56 8.11622 139.749 7.8832C139.937 7.65017 140.17 7.47092 140.44 7.34545C140.709 7.21998 140.996 7.15724 141.31 7.15724C141.364 7.15724 141.418 7.15724 141.463 7.15724C141.517 7.15724 141.562 7.1662 141.606 7.17516L141.606 8.70775C141.606 8.70775 141.508 8.68086 141.427 8.68086C141.346 8.6719 141.265 8.66293 141.185 8.66293C140.87 8.66293 140.601 8.71671 140.368 8.84218C140.135 8.9587 139.955 9.13795 139.82 9.37097C139.695 9.604 139.632 9.88183 139.632 10.2134L139.632 14.1121L138.025 14.1121L138.025 7.28271L138.016 7.29168Z" fill="#1A1A1A"/>
</svg>
